<?xml version="1.0" encoding="UTF-8"?>
<svg id="Layer_1" data-name="Layer 1" xmlns="http://www.w3.org/2000/svg" version="1.1" viewBox="0 0 512 512">
  <defs>
    <style>
      .cls-1 {
        fill: #000;
      }

      .cls-1, .cls-2, .cls-3, .cls-4 {
        stroke-width: 0px;
      }

      .cls-2 {
        fill: #938150;
      }

      .cls-3 {
        fill: #14a1ea;
      }

      .cls-4 {
        fill: #fff;
      }
    </style>
  </defs>
  <path class="cls-4" d="M417.5,0H47.3c-9.6,0-14.4,11.5-7.8,18.3l160,166.3c1,1,1.5,2.4,1.5,3.8v155.3c0,8.8,10,13.9,17.1,8.8l46.2-33.1c1-.7,1.6-1.9,1.6-3.1v-128.7c0-1.4.5-2.7,1.5-3.7L425.4,18.3c6.6-6.9,1.7-18.3-7.8-18.3Z"/>
  <path class="cls-2" d="M201.1,188.4v33.5h64.9v-34.3c0-1.4.5-2.7,1.5-3.7l113.4-119H84.6l115,119.7c1,1,1.5,2.4,1.5,3.8Z"/>
  <g>
    <path class="cls-1" d="M246.5,190.5s0,0,0,0,0,0,0,0h0Z"/>
    <path class="cls-1" d="M246.5,60.1h-30.3c-4.5,0-8.1-3.6-8.1-8.1s3.6-8.1,8.1-8.1h30.3c4.5,0,8.1,3.6,8.1,8.1s-3.6,8.1-8.1,8.1Z"/>
    <path class="cls-1" d="M246.5,90.4h-30.3c-4.5,0-8.1-3.6-8.1-8.1s3.6-8.1,8.1-8.1h30.3c4.5,0,8.1,3.6,8.1,8.1s-3.6,8.1-8.1,8.1Z"/>
    <path class="cls-1" d="M246.5,120.7h-30.3c-4.5,0-8.1-3.6-8.1-8.1s3.6-8.1,8.1-8.1h30.3c4.5,0,8.1,3.6,8.1,8.1s-3.6,8.1-8.1,8.1Z"/>
    <path class="cls-1" d="M246.5,151h-30.3c-4.5,0-8.1-3.6-8.1-8.1s3.6-8.1,8.1-8.1h30.3c4.5,0,8.1,3.6,8.1,8.1s-3.6,8.1-8.1,8.1Z"/>
  </g>
  <path class="cls-4" d="M438.1,21.6H25.7c-6,0-10.8-4.8-10.8-10.8S19.7,0,25.7,0h412.4c6,0,10.8,4.8,10.8,10.8s-4.8,10.8-10.8,10.8Z"/>
  <path class="cls-3" d="M234.6,385.4c0-8.5,11.6-28,17.4-37.2,1.5-2.4,4.9-2.4,6.4,0,5.8,9.2,17.4,28.7,17.4,37.2s-9.2,20.6-20.6,20.6-20.6-9.2-20.6-20.6Z"/>
  <path class="cls-3" d="M192.4,441.6c0-8.5,11.6-28,17.4-37.2,1.5-2.4,4.9-2.4,6.4,0,5.8,9.2,17.4,28.7,17.4,37.2s-9.2,20.6-20.6,20.6-20.6-9.2-20.6-20.6Z"/>
  <path class="cls-3" d="M234.6,491.4c0-8.5,11.6-28,17.4-37.2,1.5-2.4,4.9-2.4,6.4,0,5.8,9.2,17.4,28.7,17.4,37.2s-9.2,20.6-20.6,20.6-20.6-9.2-20.6-20.6Z"/>
</svg>