<?xml version="1.0" encoding="UTF-8"?>
<svg id="Capa_1" data-name="Capa 1" xmlns="http://www.w3.org/2000/svg" version="1.1" viewBox="0 0 800 800">
  <defs>
    <style>
      .cls-1 {
        fill: #f6c618;
        stroke-width: 0px;
      }
    </style>
  </defs>
  <path class="cls-1" d="M400,0C179.1,0,0,179.1,0,400s179.1,400,400,400,400-179.1,400-400S620.9,0,400,0ZM547.6,266.8c31.6,0,57.3,25.7,57.3,57.3s-25.7,57.3-57.3,57.3-57.3-25.7-57.3-57.3,25.7-57.3,57.3-57.3ZM252.4,266.8c31.6,0,57.3,25.7,57.3,57.3s-25.6,57.3-57.3,57.3-57.3-25.7-57.3-57.3,25.7-57.3,57.3-57.3ZM615.8,539.1c-49,71.1-129.7,113.6-215.8,113.6s-166.9-42.5-215.8-113.6c-11-15.9-6.9-37.7,9-48.7,16-11,37.7-6.9,48.7,9,35.9,52.2,95,83.3,158.1,83.3s122.2-31.1,158.2-83.3c11-15.9,32.7-19.9,48.7-9,15.9,11,19.9,32.8,8.9,48.7Z"/>
</svg>