<?xml version="1.0" encoding="UTF-8"?>
<svg id="Capa_1" data-name="Capa 1" xmlns="http://www.w3.org/2000/svg" version="1.1" viewBox="0 0 800 800">
  <defs>
    <style>
      .cls-1 {
        fill: #f6c618;
      }

      .cls-1, .cls-2 {
        stroke-width: 0px;
      }

      .cls-2 {
        fill: #bf6b45;
      }
    </style>
  </defs>
  <polygon class="cls-1" points="600.2 325.7 400.9 449.4 400.9 472.5 420.8 472.5 420.8 711.8 549.8 711.8 549.8 606.6 600.2 606.6 600.7 606.6 651.1 606.6 651.1 711.8 780.1 711.8 780.1 472.5 800 472.5 800 449.4 600.2 325.7"/>
  <polygon class="cls-2" points="0 211.8 0 234.9 19.9 234.9 19.9 474.3 148.9 474.3 148.9 369.1 199.3 369.1 199.8 369.1 250.2 369.1 250.2 474.3 379.2 474.3 379.2 234.9 399.1 234.9 399.1 211.8 199.3 88.2 0 211.8"/>
</svg>