<?xml version="1.0" encoding="UTF-8"?>
<svg id="Layer_1" data-name="Layer 1" xmlns="http://www.w3.org/2000/svg" version="1.1" viewBox="0 0 512 512">
  <defs>
    <style>
      .cls-1 {
        fill: #14a1ea;
        stroke-width: 0px;
      }
    </style>
  </defs>
  <path class="cls-1" d="M503.5,238.9h-17.1v-25.6c0-4.7-3.8-8.5-8.5-8.5h-17.1v-68.3h42.7c2.7,0,5.2-1.3,6.8-3.4,1.6-2.1,2.1-4.9,1.4-7.5L477.5,6.2c-1-3.7-4.4-6.2-8.2-6.2H42.7c-3.8,0-7.2,2.5-8.2,6.2L.3,125.7c-.7,2.6-.2,5.4,1.4,7.5,1.6,2.1,4.1,3.4,6.8,3.4h42.7v68.3h-17.1c-4.7,0-8.5,3.8-8.5,8.5s3.8,8.5,8.5,8.5h17.1v281.6c0,4.7,3.8,8.5,8.5,8.5h34.1c4.7,0,8.5-3.8,8.5-8.5V221.9h34.1v8.5c0,4.7,3.8,8.5,8.5,8.5h34.1v102.4h-51.2c-4.7,0-8.5,3.8-8.5,8.5v42.7h85.3v-51.2h-8.5v-102.4h17.1v-51.2h-68.3c-4.7,0-8.5,3.8-8.5,8.5v8.5h-34.1v-68.3h307.2v68.3h-34.1v-8.5c0-4.7-3.8-8.5-8.5-8.5h-102.4v51.2h102.4c4.7,0,8.5-3.8,8.5-8.5v-8.5h34.1v281.6c0,4.7,3.8,8.5,8.5,8.5h34.1c4.7,0,8.5-3.8,8.5-8.5V221.9h8.5v25.6c0,4.7,3.8,8.5,8.5,8.5h25.6c4.7,0,8.5-3.8,8.5-8.5s-3.8-8.5-8.5-8.5Z"/>
  <rect class="cls-1" x="230.4" y="187.7" width="17.1" height="51.2"/>
  <rect class="cls-1" x="179.2" y="409.6" width="68.3" height="34.1"/>
  <rect class="cls-1" x="221.9" y="341.3" width="68.3" height="51.2"/>
  <rect class="cls-1" x="119.5" y="409.6" width="42.7" height="34.1"/>
  <rect class="cls-1" x="221.9" y="460.8" width="68.3" height="51.2"/>
  <rect class="cls-1" x="264.5" y="409.6" width="68.3" height="34.1"/>
  <path class="cls-1" d="M307.2,460.8v51.2h76.8c4.7,0,8.5-3.8,8.5-8.5v-42.7h-85.3Z"/>
  <path class="cls-1" d="M119.5,460.8v42.7c0,4.7,3.8,8.5,8.5,8.5h76.8v-51.2h-85.3Z"/>
  <rect class="cls-1" x="349.9" y="409.6" width="42.7" height="34.1"/>
  <path class="cls-1" d="M384,341.3h-76.8v51.2h85.3v-42.7c0-4.7-3.8-8.5-8.5-8.5Z"/>
</svg>